<?xml version="1.0" encoding="utf-8"?>
<svg xmlns="http://www.w3.org/2000/svg" viewBox="-10 -10 1377 277">
<style type="text/css">
  @media (prefers-color-scheme: light) {
    .label { fill: #3d3530; }
  }
  @media (prefers-color-scheme: dark) {
    .label { fill: #e8e8e8; }
  }
</style>

<!-- Mistral Icon (breathing pulse) -->
<g transform="translate(126, 128)">
<g>
  <animateTransform attributeName="transform" type="scale" values="1;1.06;1" dur="3s" repeatCount="indefinite" calcMode="spline" keySplines="0.4 0 0.6 1;0.4 0 0.6 1"/>
  <g transform="translate(-126, -128)">
<g transform="translate(0, 2.8) scale(10.5)">
  <path d="M3.428 3.4h3.429v3.428H3.428V3.4zm13.714 0h3.43v3.428h-3.43V3.4z" fill="gold"/>
  <path d="M3.428 6.828h6.857v3.429H3.429V6.828zm10.286 0h6.857v3.429h-6.857V6.828z" fill="#FFAF00"/>
  <path d="M3.428 10.258h17.144v3.428H3.428v-3.428z" fill="#FF8205"/>
  <path d="M3.428 13.686h3.429v3.428H3.428v-3.428zm6.858 0h3.429v3.428h-3.429v-3.428zm6.856 0h3.43v3.428h-3.43v-3.428z" fill="#FA500F"/>
  <path d="M0 17.114h10.286v3.429H0v-3.429zm13.714 0H24v3.429H13.714v-3.429z" fill="#E10500"/>
</g>
  </g>
</g>
</g>

<!-- "Mistral" text -->
<g class="label" transform="translate(280, 48) scale(6.4)" fill-rule="nonzero">
  <path d="M2 22.638V1h6.55l3.933 14.76L16.37 1h6.565v21.638H18.87V5.605l-4.302 17.033h-4.214L6.066 5.605v17.033H2zm25.011-17.8V1.002h4.155V4.84h-4.155zm0 17.801V6.964h4.155V22.64h-4.155zm6.707-4.473l4.17-.635c.177.807.536 1.42 1.079 1.838.986.864 3.753.796 4.702.036.588-.404.753-1.367.25-1.89-.206-.196-.67-.378-1.389-.545-3.351-.738-5.475-1.412-6.372-2.022-2.418-1.526-2.465-5.18-.252-6.952 1.76-1.8 7.852-1.78 9.788-.34 1.045.699 1.764 1.732 2.159 3.1l-3.918.723c-.413-1.402-1.417-1.886-2.957-1.89-1.094 0-1.878.154-2.35.458-.591.383-.651 1.179-.06 1.595.374.275 1.668.664 3.88 1.165 2.213.502 3.759 1.117 4.636 1.845 1.993 1.694 1.615 5.13-.503 6.79-2.087 2.01-8.091 2.034-10.416.25-1.247-.865-2.063-2.04-2.447-3.527zm31.88 4.472h-4.154V6.963h3.86v2.229c.66-1.053 1.253-1.747 1.78-2.081 1.374-.857 3.144-.536 4.532.28l-1.286 3.617c-1.877-1.247-3.849-.81-4.384 1.535-.468 1.352-.329 7.76-.347 10.096zm10.67-10.892l-3.77-.679c1.014-3.408 3.08-4.43 6.801-4.457 2.81.037 4.804.362 6.055 2.324.37.674.554 1.912.554 3.713.013 1.729-.178 6.48.155 7.889.133.654.382 1.355.747 2.103H82.7c-.124-.272-.411-1.286-.547-1.712-1.378 1.335-2.97 2.066-4.865 2.067-2.945.058-5.22-1.756-5.219-4.635-.011-1.72.87-3.225 2.418-3.963.764-.37 1.865-.691 3.304-.967 1.942-.364 3.287-.703 4.037-1.018v-.413c0-.797-.197-1.366-.591-1.705-.57-.582-3.147-.744-3.963-.074-.414.29-.75.8-1.006 1.527zm5.56 3.365c-.757.315-4.139.86-4.79 1.358-1.077.707-1.038 2.141-.163 2.967 1.017.987 2.672.733 3.8-.103 1.374-.983 1.117-2.455 1.153-4.221zm7.933 7.527V1h4.155v21.638H89.76zM58.98 6.964v3.307H56.14v6.317l.081 2.236c.434 1.136 1.612.712 2.743.332l.355 3.218c-2.416 1.02-6.87 1.14-7.215-2.346-.096-.537-.123-1.89-.133-3.44v-6.317h-1.908V6.965h1.908V3.85l4.17-2.42v5.535h2.838z"/>
  <!-- "Vibe" -->
  <path d="M103.85 1H107.79L113.21 18.12H113.27L118.82 1H122.67L115.27 22.64H111.06Z M124.43 1H127.88V4.27H124.43ZM124.43 6.97H127.88V22.64H124.43Z M131.73 1H135.18V9H135.24Q135.61 8.42 136.12 7.97Q136.64 7.52 137.26 7.2Q137.88 6.88 138.56 6.71Q139.25 6.55 139.91 6.55Q141.76 6.55 143.14 7.2Q144.52 7.85 145.43 8.99Q146.34 10.12 146.79 11.64Q147.25 13.15 147.25 14.88Q147.25 16.46 146.84 17.94Q146.43 19.43 145.59 20.56Q144.76 21.7 143.49 22.38Q142.22 23.06 140.49 23.06Q139.7 23.06 138.9 22.96Q138.09 22.85 137.37 22.55Q136.64 22.24 136.05 21.76Q135.46 21.27 135.06 20.49H135V22.64H131.73ZM143.79 14.82Q143.79 13.76 143.52 12.76Q143.25 11.76 142.7 10.99Q142.15 10.21 141.34 9.74Q140.52 9.27 139.46 9.27Q137.28 9.27 136.17 10.79Q135.06 12.3 135.06 14.82Q135.06 16 135.35 17.02Q135.64 18.03 136.21 18.76Q136.79 19.49 137.59 19.91Q138.4 20.33 139.46 20.33Q140.64 20.33 141.46 19.85Q142.28 19.37 142.81 18.59Q143.34 17.82 143.56 16.83Q143.79 15.85 143.79 14.82Z M160.91 13.43Q160.85 12.61 160.56 11.85Q160.28 11.09 159.78 10.53Q159.28 9.97 158.56 9.62Q157.85 9.27 156.97 9.27Q156.06 9.27 155.32 9.59Q154.58 9.91 154.05 10.47Q153.52 11.03 153.2 11.79Q152.88 12.55 152.85 13.43ZM152.85 15.7Q152.85 16.61 153.11 17.46Q153.37 18.3 153.88 18.94Q154.4 19.58 155.19 19.96Q155.97 20.33 157.06 20.33Q158.58 20.33 159.5 19.68Q160.43 19.03 160.88 17.73H164.16Q163.88 19 163.22 20Q162.55 21 161.61 21.68Q160.67 22.37 159.5 22.71Q158.34 23.06 157.06 23.06Q155.22 23.06 153.79 22.46Q152.37 21.85 151.38 20.76Q150.4 19.67 149.9 18.15Q149.4 16.64 149.4 14.82Q149.4 13.15 149.93 11.65Q150.46 10.15 151.44 9.02Q152.43 7.88 153.82 7.21Q155.22 6.55 156.97 6.55Q158.82 6.55 160.29 7.32Q161.76 8.09 162.73 9.36Q163.7 10.64 164.14 12.29Q164.58 13.94 164.37 15.7Z"/>
</g>
</svg>